# xmcd
# 
# Track frame offsets:
#     150
#     16487
#     37155
#     53815
#     68160
#     84505
#     107630
#     122122
#     133732
#     145957
#     161855
#     180550
#     198427
#     214227
#     232025
#     243367
# 
# Disc length: 3318
# 
# Revision: 3
# Processed by: cddbd v1.5.2PL0 Copyright (c) Steve Scherf et al.
# Submitted via: fre:ac v1.0.31
# 
DISCID=ee0cf410
DTITLE=The Marshall Tucker Band - Where A Country Boy Belongs Disc 2
DYEAR=2006
DGENRE=Rock/Pop
TTITLE0=Blue Ridge Mountain Sky
TTITLE1=Where a Country Boy Belongs
TTITLE2=Stay in the Country
TTITLE3=Cold Day in July
TTITLE4=Time Don't Pass by Here
TTITLE5=Walkin' the Streets Alone
TTITLE6=Mr. President
TTITLE7=Hillbilly Band
TTITLE8=Blood Red Eagle
TTITLE9=Down We Go
TTITLE10=Tan Yard Road
TTITLE11=All My Rowdy Friends Have Settled Down
TTITLE12=And the Hills
TTITLE13=Daddy's Eyes
TTITLE14=Walk Outside the Lines
TTITLE15=Ab's Song
EXTD=
EXTT0=
EXTT1=
EXTT2=
EXTT3=
EXTT4=
EXTT5=
EXTT6=
EXTT7=
EXTT8=
EXTT9=
EXTT10=
EXTT11=
EXTT12=
EXTT13=
EXTT14=
EXTT15=
PLAYORDER=
